<svg width="17" height="12" viewBox="0 0 17 12" fill="none" xmlns="http://www.w3.org/2000/svg">
<path d="M16.4647 5.47384L11.7034 0.712504C11.4129 0.422004 10.9417 0.422004 10.6512 0.712504C10.3607 1.00307 10.3607 1.47408 10.6512 1.76464L14.1425 5.25595H1.42658C1.01573 5.25595 0.682617 5.58907 0.682617 5.99991C0.682617 6.4107 1.01573 6.74387 1.42658 6.74387H14.1425L10.6514 10.2352C10.3608 10.5257 10.3608 10.9968 10.6514 11.2873C10.7966 11.4325 10.987 11.5052 11.1774 11.5052C11.3678 11.5052 11.5582 11.4325 11.7035 11.2873L16.4647 6.52598C16.7553 6.23542 16.7553 5.7644 16.4647 5.47384Z" fill="#60FEEB"/>
</svg>
